/* XPM */
static char *_420b3c0b30441c0964b4c5a146427d0Yd6FxyHJSumizQRy[] = {
/* columns rows colors chars-per-pixel */
"64 64 24 1 ",
"  c #8D8D8D",
". c gray49",
"X c #717171",
"o c #FCD51F",
"O c gray60",
"+ c #B5AD00",
"@ c #E5D900",
"# c #CDC500",
"$ c #9D9D00",
"% c #858500",
"& c gray28",
"* c #646464",
"= c #535353",
"- c #716C00",
"; c #575201",
": c #3F3D02",
"> c gray36",
", c #3E3E3E",
"< c #A9A9A9",
"1 c #FCF41A",
"2 c #B27041",
"3 c #7C4F26",
"4 c gray20",
"5 c #2F2108",
/* pixels */
"&&&&=&&&&&&&&&&&&&===&&&&&&&&&&&&,&&&&,&&&&&,,,&&&&&&&&&&&&&&,&&",
"XXXXX****XXXXX**XX. XXXXXXXXXXXXXXXXX***XXX*X*XX.....XX**>*>>*X*",
"***>>=>>**X***XXXXX.***XXXXX**X*XXX**>>**XXX***XXXX...**>>****X*",
"X..X***XXX.XX...... XXX.X...X..X.................X.. .XXX**X...X",
"..XXXX*XXX.XX... .  ..X .  ........ .......      ... ..XXXXX.X.X",
"======&===>===>>*>*>>==X>*>>>>>=====>==>==>>>>***>****>==&&&=&==",
"&&,&&,,&&&&&&,,,&&&&&&&&&&&&&&&,,,&&&&,,,,&&&&&&&&,,&&&&,&&,,&&&",
"XXXXXXXXXX********XXXXXXXX**XXX*>**XXX****XXXXXXXX**XXXX**XX*X*X",
" OO OO OO     .      OO O  22$$$$$$$22. O OOOO      O O   OO    ",
"OOOOOOOO           OOOO 2$+#oo#%++#o@#$$2 OOOO      OOO     O   ",
"O<OOO        O  OO OO $$@@#+#oo#%##o#$@##+2 OOOOO               ",
"OOOOOOOOOOOO   OOOO $+##+#o+$###-###;+#####+2OOOOO     ..  O    ",
"OOOOO<OOOOOO   O<O2#ooo@##+##+##$#@+##$+@##o#+ OOOOOOO . O O  O ",
"O<<OOOOOOOOOO  O $###@1o###+++%;+%#;+####@@+%-$2OOOO<OO  OO  O  ",
"OOOOOOOOOOOO    $@o++-$+#+$%+%%%%$$;##+##$$%#+o+2 O<<OO OOOOOOO ",
"OOOOOOOOOOOO  .+@o1+#@o-%%$$;::5::::-$$++%###+@@$2O<<<OOOO<OOOO ",
"OOOOOO   OOO .$1@oo+@#++%%;::;;;@%;;;:%$-o+#$$oo$+2<<OOO  OOOOOO",
"OOOOOO OOOO .$##o#o+$%$$:::;;--#@o+:;;::;%%++#@o-@+.<OOO OOO OOO",
"OOO   OOOO<O2$+@@@@#+%-;:;--%$##@@o$%-:::5%$#+##-#+$ OO   OO   O",
"OOOOO OOO<O.$@#@%#@$%;:;%$$$$#@@#@#;%$-;-::5%-#++$+%2 O        O",
"OOOOOOOO<< $#$+%+@%+-:;%$$$$#@@@o#;;%$%%%;;;:%#$#+$;+.O   O  OO ",
"OOOOOOOOOO2##%++#$$%:;%$$$$#o@@o#-:%$$%%%$%;:;$$%#+++$ OOOOOOOO ",
"OOOOOOOOO $o####%--:--+$$$#o@@o@;;%$$$#+%$%%-;-$%+#@@#.OOOOOOOO ",
"OOOOOOOOO.#@#o@@$#-;%%++$#oooo@;;-$$%+@@$%$%$-:%##@@@#2 OOOOOOO ",
"OOOOOOOO 2+#@+o@#+:-%$%$#oooo#-;%$+$+@@o@$%%$%:-o@o#o$$.<OOOOOO ",
"OOOOO<OO.$##@+o$#:;-%%$#o@oo1+:$$$%+@@@o@o%$$%;:#o#@+$+2O<<<OOOO",
"OOOOOOOO.+#$+$#$%;%%$$$;#oo@o1+%$$$@@o1@1@@%%%%;;@$#$#+2 OOOOO O",
"OOOOOOO 2+++$++$--%$$$$;-#ooooo+%+#o@o@@ooo@%%$%-@#$%++$ OOO  OO",
"OOOOOOO 2+@#$#@$:%$%$$$%;-#ooo11#@@o@1+@ooo@@%%$:##$$+#$X OO O O",
"OOOOOOO %1o@+o@#:$%#@$%%$;;#ooooooooo+:-#oo@@#%%;+o@+@#+XOOOOOOO",
"OOOOOOO.%o@o+##+;$+@oo$%%-:-#11o1ooo+:::%@ooo@#%-+oo+@#+X OOOOOO",
"OOOOOOO.$@+@+##$:#@o@@o-$-%:;oooooo#::$%:%@o@o1#-+#@+@+#3 OOOOOO",
"OOOOOOO.$++@$#+$:%@o@o@o%-%-#oo1@o@1$-$$%;%@1o#;;$#@$###3.OOOOOO",
" O    O.%@#+$#+#-:%#oooo@--+o@o@1oo@o+%$$%;-@@%:$#+$-@++3.  OO  ",
" OO  OO.%+-++$$#:%;%oooo@@+@o@@o@@ooo@+%$$-:--:-;+%-#+-+>.      ",
"  O   O.3@$$+o+#-%-:%@ooo@@@ooo$%#@@o@1$%$%-::;$-@$@##$$* OO    ",
"OO     .3#+#@@#+--$;:%@o@o@ooo+;:;+ooo@o+%%%--%%$o#@o#@$XOOOO  O",
"O  . . .>+####o%$-%%;:%ooo@11+:;-:-#@@oo@$-%%%%%#o+oo##%XOOOO  O",
"     . .>$@+#$@$$--%%-:%@o@o+;;-%--@@@@o#-%$$$$-o###@+#3.OOO<OOO",
"    O   *%o$#$$++;-%-%-:%#o+;:;%$$@@@o@#-5%%$$$$#$#+#++> OOO<OOO",
"  OO    X3$+%+-#@+-%%%%-:%$::-%%%#@@@@#-:-$$$$-+$$+#$+%* OOOOOOO",
"O O     .>$+#%$+@@+;-%%%;:::-%%$@@@@@#-:;$$$$%+##$$%$#3.O<OOO  O",
" O     O *3++###o#@;$;%%%;--%%%##@#o#-:;%$$%$$@##%-++$=  OOO    ",
"      OO .&$##@+@+#+-;%%-%%-%$#@@@@#-::%$$%%;#+@+++++3*   OOO   ",
"O         *3+##@$#+$++-%%-%%-%@o@o@-:--%$$%-$++++@@#%& OOOOOOOO ",
"OO        .&%#+#%++%#@+--%%%%:-@o@%:;-%$$-$+-%+$@#++3*OOOOOOOOO ",
"OO         *&%#+%+$+@#o+;%-%%-:-#-5;-%%%-+#++#$+$$+3=.OOO<<OOO  ",
" OO         >;%#%$##@@##%$-;;;::;:;%-%-$$$+@@#$-$$%,X  OOOOOO<O ",
"OO  O      O.&3$#++##+@##$++#$$;;-$$+#$##+#+@#++#%4*   OOOOO O  ",
" OO O        .&3$@#+@#$%-#@+@oo%#$@o#;+o+$$####+%,>    OOOO     ",
" OO OO    .   X&3%##+#@$-+@#+@@#:#o@+%o+$;+$+++%4=X..  OOO      ",
"    OOOO     . X&:%+@#$@#++$-@#@-@o@-++##+$#+%-4*. O        OOO ",
"  OOOOOOO  ...   >,3%++##@@@$@#@$##+-#@###$$%;,*.      OOO OO OO",
"  OO  OOO   ...OO X&:%%%@@#$;@####++-%$+#%-34&X    OOOOOOOO  OOO",
"O O  OO      .. OO .=443%-%+%#$++%++-+$%%;4,*. O   OOOOOOOOO   O",
"     O   O      OOOO .*,4,3%$$--%%+$%%;44&*.      OO OO  OOO    ",
" .      OO      OOOOOO..*>&445:::::444&>X    OO      O   OO     ",
"      OOOO O   O OOO      .X*>&&&&=>*X   O  OOO    OOO  OO    O ",
"           O     O  O   O ..  .XX....     OOO      OOO          ",
"                OOOO      ... O .  ... .            OO   OOO   .",
".X.X........X.......XX......XX.XX..X.X....X..X...XXXXX.........X",
"&&&&&&&&&&&&,&=&&&&&&&&&&&&&&&&&&,&&,,&,&&&&&,&&&,,,,,,&,&,,&&&&",
"=>=========>==>>>>>>>=>>>==>>=&&&&=====&&==&&&==&=====>>=&&&====",
">**>**********XXX*X***XXX****>=>>>>>*X*>>=>>>>>>>**>*>*******>>="
};
