/* XPM */
static char *b07ccd8e2cf04de0aa00d9490875157d4U5NQxniluu92fc1[] = {
/* columns rows colors chars-per-pixel */
"64 64 9 1 ",
"  c gray55",
". c #989898",
"X c #7C7C7C",
"o c gray66",
"O c gray38",
"+ c #494949",
"@ c gray44",
"# c gray33",
"$ c gray25",
/* pixels */
"++++#+++++++++++++###++++++++++++$++++$+++++$$$++++++++++++++$++",
"@@@@@OOOO@@@@@OO@@X @@@@@@@@@@@@@@@@@OOO@@@O@O@@XXXXX@@OOOOOOO@O",
"OOOOO#OOOO@OOO@@@@@XOOO@@@@@OO@O@@@OOOOOO@@@OOO@@@@XXXOOO#OOOO@O",
"@XX@OOO@@@X@@XXXXXX @@@X@XXX@XX@XXXXXXXXXXXXXXXXX@XX X@@@OO@XXX@",
"XX@@@@O@@@X@@XXX X  XX@ X  XXXXXXXX XXXXXXX      XXX XX@@@@@X@X@",
"######+###O###OOOOOOO##@OOOO#OO#####O##O##O#OOOOOOOOOOO##+++#+##",
"++$++$$++++++$$$+++++++++++++++$$$++++$$$$++++++++$$++++$++$$+++",
"@@@@@@@@@@OOOOOOOO@@@@@@@@OO@@@OOOO@@@OOOO@@@@@@@@OO@@@@OO@@O@O@",
" .. .. ..     X      .. . .  X  X       . ....      . .   ..    ",
"........           .........          .   ....      ...     .   ",
".o...        .  .. ..ooo..... ... .....   .......               ",
"............   ................  .....    ..oo....     XX  .    ",
".....o......   .ooo...........  .oo.oo .....oo........ X . .  . ",
".oo..........  ............o.o...ooooo....ooo.......o..  ..  .  ",
"............   ...o.o......oo... .oo.o...ooooo.....oo.. ....... ",
"............   .....oo..............o..oooooooo....ooo....o.... ",
"......   ...   ....ooo.......... ..oo...ooooooo....oo...  ......",
"...... ....    ...... .....ooo... ..o....ooooo..o...o... ... ...",
"...   ....o..  .......... ooo.....oo......o............   ..   .",
"..... ...o.    ......... .oooo....oooo.....o...........        .",
"........oo.. . oooooo... oooo. ...ooo.. ..o....  .    .   .  .. ",
"..............oooooo.o....oooo....ooo....oooo..  .  .o......... ",
"..........o...oooooo......oooo..o.o.ooo...ooo..    ............ ",
"...............oooo....o....ooo.oooooo.. ....      ............ ",
"................oo..................o..         .  ..o..o...... ",
".....o..........oo..........oo......oo   X   .     . .. .ooo....",
"..........o......o............o.....oo   XX  .          ...... .",
"..........o.. ............o..ooo.......                .....  ..",
"............. .....  ....oooooo. ......  ...              .. . .",
"............  ...o.. ......oo...... ..  ....o.      . . ........",
"............. . ..o.    . .........    X ..ooo  ..  ... ........",
"......... ...   ..oo  . ..  ......  .. XX .....      .. ........",
"........ ..... .....      .... ..  ... XX..               ......",
" .    .. ...........        ...  . ... XX    X              ..  ",
" ..  ... ....  . ...  .  ... ...  . ..                .         ",
"  .   ..............  .....o. .. ....      ...  ..   .. ....    ",
"..        .      ..   ..   XXX ...ooo.     .     .  .........  .",
".  X X             . . .       ...ooo X  ...    ... .... ....  .",
"     X          ..  ..   .. ..... .... X ..  .. ....o.......o...",
"    .          .......  ....  .. .... .     ........o.......o...",
"  ..      ...  ............. ...  ..       .........oo..........",
". .      .... ......  .....  ...   XX .. X ..............o...  .",
" .     .  ...  .o..   ....... .....      X  ............ ...    ",
"      ..       .....   ............         ... .....     ...   ",
".           ........     .........o.    XX     ....   ......... ",
"..             ..... .   ............       .    X .  ......... ",
"..             ......    .....  ....     .            ...oo...  ",
" ..        .  .......    ...     ...        XX  XXXX   ......o. ",
"..  .      .   ...o.   XX       .o.      . XXXXX XXX   ..... .  ",
" .. .             .           X  ...    ..  XX    X    ....     ",
" .. ..    X         . .        X       . .   XX  XXXX  ...      ",
"    ....     X    ..         X X       .           .        ... ",
"  .......  XXX  ....    ..   X       X ..              ... .. ..",
"  ..  ...   XXX.....    ..    XXX XXXXX ...        ........  ...",
". .  ..      XX .... .....  X    XXXXXX .      .   .........   .",
"     .   .      ....... ..  XXXX  X XXX           .. ..  ...    ",
" X      ..      ......   ..  XXX XX      .   ..      .   ..     ",
"      .... .   . ...     .    XXXX    .  .  ...    ...  ..    . ",
"           .     .  .   . XX   XX  XX     ...      ...          ",
"                ....      XXX . X  XXX X            ..   ...   X",
"X@X@XXXXXXXX@XXXXXXX@@XXXXXX@@X@@XX@X@XXXX@XX@XXX@@@@@XXXXXXXXX@",
"++++++++++++$+#++++++++++++++++++$++$$+$+++++$+++$$$$$$+$+$$++++",
"#O#########O##OOO#O#O#OOO##OO#++++#####++##+++##+#####OO#+++####",
"OOOOOOOOOOOOOO@@@O@OOO@@@OOOOO#OOOOOO@OOO#OOOO#OOOOOOOOOOOOOO#O#"
};
